<svg xmlns="http://www.w3.org/2000/svg" viewBox="1150 980 1700 1680">
  <rect x="1150" y="980" width="1700" height="1680" rx="200" fill="#111111"/>
  <path fill="#ffffff" d="M2001 1646c3.23 1.42 5.382 3.136 7.863 5.633l2.19 2.195 2.26 2.297 2.224 2.227a247 247 0 0 1 11.75 12.692c2.932 3.348 6.02 6.545 9.088 9.768 5.102 5.398 9.952 10.87 14.586 16.676 2.771 3.414 5.706 6.663 8.671 9.908a560 560 0 0 1 4.423 4.919c5.459 6.145 11.145 12.003 16.984 17.787l4.241 4.224q3.67 3.652 7.345 7.299 4.405 4.373 8.804 8.753 2.723 2.712 5.453 5.416l2.519 2.51 2.185 2.169a173 173 0 0 1 5.769 6.382c3.375 3.883 6.918 7.547 10.57 11.168l1.98 1.975q2.105 2.1 4.214 4.197 3.347 3.328 6.687 6.662 7.092 7.075 14.194 14.143 8.235 8.198 16.46 16.404 3.276 3.267 6.559 6.527l4.055 4.046 1.817 1.801c3.675 3.674 7.13 7.486 10.53 11.416 1.87 2.139 3.826 4.166 5.843 6.167.757.755 1.515 1.51 2.296 2.286l2.409 2.384 2.543 2.532a7326 7326 0 0 0 7.988 7.937q5.27 5.23 10.531 10.469l2.41 2.384a224 224 0 0 1 11.788 12.651c3.273 3.688 6.798 7.124 10.302 10.59l2.409 2.397a6544 6544 0 0 0 7.56 7.509q4.988 4.95 9.969 9.906l2.276 2.252c4.06 4.04 7.919 8.18 11.657 12.519 2.252 2.569 4.634 4.954 7.067 7.354l1.466 1.455q2.28 2.26 4.565 4.514c5.881 5.802 11.693 11.586 17.064 17.873 1.828 2.071 3.818 3.857 5.936 5.627 2.734 2.285 5.106 4.666 7.406 7.375 5.656 6.561 11.94 12.537 18.094 18.625 13.965 13.814 13.965 13.814 19.184 19.96 4.364 4.9 9.148 9.432 13.816 14.04 11.723 11.573 11.723 11.573 15.344 15.844 5.631 6.6 11.994 12.558 18.156 18.656 14.616 14.463 14.616 14.463 19.795 20.572 3.847 4.35 8.072 8.353 12.205 12.428 10.162 10.018 10.162 10.018 13.906 14.406 4.864 5.68 10.277 10.845 15.594 16.094 6.563 6.48 13.042 12.949 19 20q1.6 1.836 3.203 3.668l3.047 3.52 1.563 1.787c7.241 8.389 7.241 8.389 7.105 12.51-1.118 3.062-2.61 5.182-4.606 7.765l-1.186 1.54c-11.37 14.62-23.422 28.754-35.876 42.46-3.08 3.39-6 6.871-8.875 10.438-3.059 3.78-6.212 7.273-9.707 10.648-1.759 1.754-3.367 3.588-4.98 5.477-6.318 7.27-13.032 13.887-20.626 19.812l-1.684 1.328c-4.007 3.047-4.007 3.047-7.378 3.047-1.57-1.494-1.57-1.494-3.236-3.545-3.468-4.136-7.142-7.947-10.983-11.736l-2.005-1.994q-3.135-3.116-6.276-6.225a5807 5807 0 0 1-8.281-8.219l-1.879-1.853c-3.704-3.683-7.174-7.5-10.588-11.451-2.856-3.222-5.907-6.236-8.97-9.258l-2.006-1.994q-3.135-3.116-6.276-6.225a5807 5807 0 0 1-8.281-8.219l-1.879-1.853c-3.063-3.046-6.003-6.145-8.826-9.414-3.477-4.024-7.168-7.78-10.952-11.514l-2.072-2.06a4783 4783 0 0 0-6.49-6.44q-4.285-4.245-8.562-8.5l-1.946-1.92c-3.761-3.741-7.294-7.61-10.761-11.624-2.779-3.14-5.747-6.076-8.731-9.019a4155.732 4155.732 0 0 0-8-7.937q-4.005-3.966-8-7.937l-1.812-1.788c-3.008-2.99-5.888-6.037-8.66-9.248-3.483-4.028-7.178-7.788-10.965-11.527l-2.073-2.06a4783 4783 0 0 0-6.49-6.44q-4.285-4.245-8.562-8.5l-1.946-1.92c-3.09-3.074-6.065-6.194-8.91-9.498-3.9-4.515-8.092-8.7-12.332-12.894l-2.476-2.465q-3.883-3.865-7.774-7.723a9007 9007 0 0 1-10.25-10.187l-2.343-2.318c-3.381-3.366-6.678-6.749-9.784-10.372-4.054-4.706-8.444-9.057-12.853-13.429a2395 2395 0 0 1-4.57-4.545q-4.846-4.828-9.7-9.649-5.633-5.595-11.256-11.2-2.23-2.219-4.465-4.433l-2.781-2.771-2.419-2.403a158 158 0 0 1-5.759-6.37c-4.419-5.087-9.175-9.818-13.943-14.575l-3.008-3.014a8050 8050 0 0 0-8.114-8.113q-4.266-4.264-8.529-8.53-7.158-7.161-14.321-14.316a23465 23465 0 0 1-16.504-16.506q-7.11-7.115-14.223-14.225-4.237-4.236-8.47-8.473a6920 6920 0 0 0-7.972-7.966 3420 3420 0 0 1-4.282-4.286A709 709 0 0 0 2013 1868l-2.271-2.216c-.7-.653-1.4-1.306-2.12-1.98l-1.829-1.726c-1.731-1.291-1.731-1.291-3.85-.877-2.971 1.23-4.904 3.231-7.243 5.424l-1.553 1.45c-5.018 4.725-9.88 9.612-14.706 14.533-2.979 3.022-5.999 5.926-9.221 8.69-3.87 3.367-7.535 6.888-11.155 10.52l-1.95 1.945a4820 4820 0 0 0-6.293 6.296l-4.422 4.419a13054 13054 0 0 0-9.231 9.236q-5.89 5.897-11.788 11.784-4.561 4.557-9.12 9.12l-4.344 4.342q-3.046 3.043-6.086 6.092l-1.784 1.778c-3.607 3.626-6.997 7.389-10.344 11.255-2.458 2.785-5.058 5.408-7.698 8.02l-1.683 1.68a2692 2692 0 0 1-3.577 3.558 3736 3736 0 0 0-5.678 5.654q-7.044 7.02-14.095 14.033a13826 13826 0 0 0-11.94 11.896 4554 4554 0 0 1-5.562 5.53c-5.194 5.171-10.304 10.34-15.06 15.923-1.962 2.277-4.068 4.388-6.21 6.496l-2.57 2.547-5.234 5.156-2.57 2.547-2.293 2.258a149 149 0 0 0-5.706 6.303c-4.32 4.974-8.979 9.585-13.658 14.22l-4.254 4.238q-4.446 4.423-8.896 8.84-3.678 3.651-7.35 7.31a2886 2886 0 0 1-5.486 5.449c-3.64 3.624-7.22 7.244-10.56 11.148-4.271 4.969-8.933 9.544-13.581 14.155q-2.49 2.471-4.973 4.949-6.167 6.144-12.342 12.28-5.235 5.205-10.461 10.416-2.43 2.419-4.864 4.832c-6.045 6.006-6.045 6.006-11.748 12.336-4.853 5.67-10.234 10.844-15.525 16.1a4193 4193 0 0 0-6.005 5.98q-6.364 6.347-12.736 12.686-7.4 7.363-14.79 14.734-2.946 2.936-5.898 5.866l-3.63 3.621-1.642 1.625c-3.357 3.357-6.405 6.857-9.415 10.529a300 300 0 0 1-5 5 2485 2485 0 0 0-3.926 3.96l-4.387 4.415c-.72.73-1.442 1.46-2.185 2.21-6.51 6.54-13.388 12.546-20.502 18.415a5818 5818 0 0 1-9.015-8.96l-3.058-3.037c-5.288-5.245-10.497-10.505-15.342-16.17-2.718-3.143-5.602-6.13-8.46-9.146-4.841-5.148-9.466-10.386-13.875-15.914a196 196 0 0 0-4.937-5.859c-8-9.113-15.263-18.682-22.461-28.436a398 398 0 0 0-5.508-7.173l-1.713-2.208a352 352 0 0 0-3.215-4.073c-3.467-4.496-3.467-4.496-3.225-7.02.931-2.307 1.976-3.528 3.749-5.269l1.873-1.862 2.039-1.982 2.097-2.078q3.33-3.29 6.676-6.563 3.31-3.256 6.611-6.52 2.054-2.029 4.118-4.047c3.136-3.089 6.153-6.216 9.022-9.555 4.18-4.845 8.705-9.316 13.249-13.816l2.745-2.733q5.04-5.017 10.088-10.026 4.961-4.93 9.917-9.865l2.608-2.583c4.283-4.266 8.384-8.603 12.323-13.186 2.967-3.36 6.162-6.489 9.35-9.638l2.14-2.128q4.476-4.449 8.961-8.89 3.296-3.27 6.587-6.544l2.011-1.986a201 201 0 0 0 11.041-11.906c3.253-3.704 6.831-7.094 10.354-10.538 2.929-2.89 5.737-5.813 8.406-8.945 5.627-6.519 11.897-12.451 18.02-18.499q2.46-2.436 4.918-4.876l1.48-1.456a150 150 0 0 0 7.844-8.431c3.436-3.966 7.067-7.68 10.8-11.363l2.006-1.994q4.19-4.162 8.388-8.316 3.087-3.061 6.17-6.128l1.878-1.853c3.734-3.714 7.24-7.56 10.682-11.545 2.345-2.663 4.82-5.14 7.345-7.633l1.534-1.522q3.187-3.16 6.382-6.31c5.373-5.311 10.665-10.62 15.573-16.371 4.508-5.059 9.457-9.727 14.281-14.484 6.699-6.583 6.699-6.583 13.012-13.532 5.152-6.023 10.923-11.478 16.56-17.04 5.228-5.163 10.353-10.336 15.13-15.927 4.516-5.062 9.468-9.738 14.298-14.5 5.09-5.025 10.064-10.076 14.715-15.513 4.76-5.34 9.998-10.254 15.09-15.274 4.53-4.49 8.9-9.02 13.049-13.865 3.691-4.178 7.75-8.01 11.728-11.912a204 204 0 0 0 11.215-12.031c2.932-3.307 6.092-6.376 9.246-9.469 5.676-5.585 5.676-5.585 11-11.5 3.997-4.747 8.481-9.03 12.908-13.371 3.147-3.104 6.175-6.248 9.06-9.598 4.263-4.943 8.914-9.463 13.571-14.031a205 205 0 0 0 11.246-12.031c2.82-3.237 5.771-6.346 8.715-9.469 4.163-4.437 8.275-8.896 12.254-13.5 8.196-9.388 16.874-18.254 25.746-27"/>
  <path fill="#ffffff" d="m1964.197 1107.833 6.442-.006q11.319-.014 22.638-.012 10.416-.001 20.834-.026 9.055-.019 18.112-.018 5.358.002 10.717-.013c33.005-.093 64.807 2.733 97.06 9.68l3.04.652c48.181 10.39 95.744 24.1 140.96 43.91l3.532 1.533c40.199 17.48 78.594 38.213 114.468 63.467l3.55 2.473c18.249 12.792 35.8 26.615 52.747 41.078a979 979 0 0 0 5.047 4.258c15.55 13.104 30.01 27.376 44.362 41.767q3.673 3.68 7.356 7.35l4.758 4.761 2.182 2.176c4.532 4.553 8.817 9.261 12.998 14.137q1.515 1.734 3.035 3.465c29.773 34.091 56.152 70.425 78.965 109.535l1.504 2.556c19.524 33.267 35.7 68.328 49.496 104.319l.794 2.069c7.212 18.87 13.012 37.955 18.143 57.493l.931 3.534c5.135 19.56 9.693 39.102 13.132 59.029.132.754.263 1.507.4 2.283 5.99 34.294 9.213 67.882 8.6 102.717-12.894.863-25.76 1.244-38.682 1.295q-3.1.018-6.2.062c-3.035.042-6.068.058-9.102.069l-2.784.053c-5.721-.02-8.846-.726-13.232-4.479-1.207-1.965-1.207-1.965-1.813-3.938l-.644-1.964a66 66 0 0 1-1.973-12.211c-.07-.988-.142-1.975-.216-2.992l-.229-3.208c-3.824-49.558-13.72-99.14-28.125-146.687l-1.01-3.398c-7.207-24.125-17.33-46.834-27.99-69.602-.445-.958-.89-1.915-1.347-2.902-9.36-20.137-19.778-39.67-31.223-58.698-1.676-2.812-3.318-5.643-4.961-8.474-6.225-10.652-12.478-20.818-20.438-30.254-3.59-4.267-6.824-8.783-10.094-13.297-4.45-6.113-9.017-12.031-13.973-17.741a203 203 0 0 1-7.88-9.703c-5.728-7.489-11.987-14.336-18.506-21.142a190 190 0 0 1-6.879-7.605c-4.47-5.153-9.304-9.935-14.137-14.747l-2.736-2.748c-4.567-4.56-9.186-8.99-14.086-13.194-2.404-2.065-4.724-4.22-7.053-6.37-5.402-4.92-10.989-9.553-16.687-14.125l-3.36-2.738c-71.427-58.045-156.288-100.575-344.64-138.262l-2.505-.255c-8.876-.847-17.715-.908-26.62-.913l-4.971-.013c-5.301-.011-10.603-.01-15.904-.007l-2.73.001c-71.195-.292-71.195-.292-141.188 11.384a741 741 0 0 1-9.207 2.323c-6.98 1.744-13.932 3.593-20.875 5.48l-2.44.662a2269 2269 0 0 0-16.516 4.558q-2.752.768-5.506 1.523c-10.219 2.807-19.77 5.984-29.275 10.681-4.396 2.123-8.895 3.703-13.513 5.263-29.96 10.56-58.344 25.373-85.75 41.313l-3.328 1.924c-14.619 8.467-28.941 17.214-42.672 27.076l-2.372 1.694c-10.96 7.853-21.485 16.127-31.81 24.793-2.452 2.041-4.95 4.023-7.443 6.013-5.678 4.635-10.987 9.645-16.309 14.68a543 543 0 0 1-8.248 7.621c-6.365 5.786-12.524 11.75-18.593 17.843a1745 1745 0 0 1-4.664 4.659c-4.832 4.828-9.564 9.7-14.007 14.894-2.598 3.014-5.332 5.9-8.054 8.803-4.592 4.925-9.113 9.89-13.5 15l-2.629 2.996c-13.475 15.424-25.284 31.793-36.371 49.004l-1.624 2.514c-6.98 10.868-13.443 21.997-19.689 33.298l-.99 1.788c-4.801 8.692-9.316 17.505-13.711 26.408q-1.439 2.904-2.89 5.803c-34.455 68.933-61.062 146.822-63.681 234.06-.098 7.748-.343 15.91-3.415 23.129-3.909 2.961-7.652 3.71-12.438 4.187l-2.292.24c-45.97 4.14-45.97 4.14-55.403-3.053-2.505-3.185-2.37-5.157-2.363-9.183l-.009-2.028c0-2.201.031-4.4.067-6.6l.022-2.308c.148-15.211 1.383-30.178 3.416-45.255l.294-2.226c6.471-48.937 18.412-95.904 33.706-142.774l.991-3.04c3.862-11.72 8.422-23.121 13.19-34.501 2.008-4.822 3.917-9.553 5.307-14.592 1.598-5.595 4.195-10.512 6.95-15.617l1.604-3.022c4.545-8.538 9.178-17.03 13.837-25.505a828 828 0 0 0 6.46-12.04c12.088-22.88 25.822-44.494 40.661-65.683l1.71-2.445c7.237-10.293 14.87-20.17 22.893-29.858a446 446 0 0 0 5.522-6.885c7.63-9.557 15.646-18.767 23.875-27.812q2.158-2.406 4.312-4.813 2.342-2.596 4.688-5.187l2.672-2.957c5.716-6.283 11.583-12.4 17.578-18.418l1.967-1.981c3.814-3.802 7.743-7.406 11.819-10.925 3.174-2.778 6.215-5.693 9.276-8.594 6.024-5.659 12.225-10.97 18.688-16.125q1.803-1.487 3.602-2.98c9.11-7.54 18.501-14.564 28.142-21.408a619 619 0 0 0 6.553-4.757c12.302-9.02 24.937-17.506 37.703-25.855l2.471-1.62c14.46-9.441 29.441-17.993 44.529-26.38l2.92-1.625c75.301-41.516 168.892-72.587 292.277-77.542M1294 1837c19.443-.106 38.875-.085 58.313.438l2.392.059q3.33.086 6.658.187l3.822.11C1368 1838 1368 1838 1369 1839c.16 1.384.256 2.776.325 4.167l.144 2.702.144 2.963.338 6.257.177 3.328c.994 18.31 2.188 36.401 5.34 54.487.543 3.157 1.03 6.32 1.512 9.487 5.025 31.717 13.81 63.192 24.02 93.609l1.248 3.728c13.394 39.751 30.518 77.71 52.192 113.657a371 371 0 0 1 4.38 7.568c9.43 16.694 19.866 32.601 31.944 47.5 1.992 2.493 3.893 5.05 5.799 7.61 18.411 24.691 38.072 47.634 59.812 69.437l1.564 1.572c5.839 5.862 11.74 11.58 18.061 16.928l3.457 2.992c7.098 6.108 14.253 12.13 21.543 18.008l1.722 1.39c8.667 6.99 17.37 13.93 26.278 20.61l1.962 1.471c79.558 59.304 175.675 96.852 273.174 112.76q2.718.442 5.435.895c27.75 4.588 55.131 6.368 83.2 6.197 2.97-.014 5.941-.009 8.912-.004 28.478.037 56.645-1.521 84.88-5.444l3.34-.456c30.908-4.247 61.122-10.788 91.097-19.419l3.306-.952c77.09-22.455 147.134-59.804 209.694-110.048l2.777-2.223c10.53-8.52 20.75-17.445 30.769-26.558a375 375 0 0 1 4.513-4.02c7.788-6.856 15.086-14.193 22.41-21.538a3573 3573 0 0 1 6.674-6.667l4.306-4.31 1.983-1.977a228 228 0 0 0 11.074-11.975c1.915-2.22 3.891-4.38 5.869-6.544 4.73-5.25 9.195-10.684 13.625-16.188l2.777-3.398c55.99-68.79 92.403-151.06 117.098-235.602l.918-3.077c1.74-6.174 2.706-12.296 3.422-18.656.822-7.097 2.25-14.035 3.7-21.026 6.212-30.212 8.826-60.517 11.085-91.241h75c0 22.125-2.166 43.75-5.365 65.62q-.667 4.58-1.293 9.167c-5.503 40.036-15.588 78.722-26.717 117.525l-.856 3.018c-3.03 10.622-6.37 20.634-11.26 30.547-1.89 3.912-3.224 7.859-4.509 11.998-10.895 32.721-28.374 63.671-46 93.125l-1.722 2.897c-19.348 32.514-40.81 64.193-65.278 93.103l-1.356 1.61c-6.169 7.308-12.466 14.47-18.976 21.476a261 261 0 0 0-5.722 6.475c-4.375 5.005-9.05 9.687-13.755 14.38l-2.804 2.808a5219 5219 0 0 1-5.847 5.842q-3.717 3.71-7.426 7.43-3.584 3.587-7.173 7.17l-2.658 2.665c-4.415 4.398-8.886 8.66-13.62 12.715-2.322 1.995-4.549 4.09-6.788 6.179-4.702 4.292-9.586 8.255-14.62 12.148a292 292 0 0 0-11.005 8.977c-21.062 17.612-44.907 32.813-68.618 46.593-2.882 1.678-5.753 3.375-8.624 5.071-16.041 9.424-32.38 18.132-49.008 26.461l-1.808.908c-33.574 16.834-67.87 30.941-104.11 40.946-4.438 1.236-8.855 2.544-13.273 3.85-21.06 6.187-42.067 11.213-63.701 14.931q-3.086.536-6.17 1.09c-21.888 3.906-43.76 5.958-65.938 7.275l-2.641.158c-84.01 4.962-84.01 4.962-123.067-1.654-4.543-.695-9.095-1.097-13.672-1.5-84.242-7.482-174.517-35.69-247.69-78.316-4.094-2.359-8.23-4.638-12.366-6.923-41.282-22.853-79.274-50.284-113.904-82.32a289 289 0 0 0-6.598-5.883c-8.49-7.377-16.71-15.048-24.55-23.113a122 122 0 0 0-6.02-5.465c-5.376-4.665-10.372-9.714-15.392-14.754q-2.49-2.495-4.989-4.982c-5.02-5.018-9.94-10.07-14.552-15.47-2.7-3.079-5.635-5.915-8.559-8.778-4.23-4.192-8.423-8.363-12.254-12.93a161 161 0 0 0-4.148-4.703c-7.265-8.072-12.802-16.881-18.41-26.156-7.358-12.138-15.815-23.574-24.145-35.055l-1.523-2.102a167 167 0 0 0-3.086-4.042c-3.745-4.776-6.354-9.6-8.809-15.137-2.607-5.687-5.277-11.224-8.437-16.625-11.64-19.985-21.08-40.807-30.316-61.974-1.69-3.868-3.404-7.726-5.126-11.58l-1.486-3.337q-1.314-2.948-2.635-5.894c-6.903-15.593-11.91-31.575-16.694-47.92-1.055-3.606-2.12-7.21-3.185-10.813-4.881-16.545-9.591-32.942-12.746-49.92q-.777-4.125-1.559-8.25l-.38-2.019a512 512 0 0 0-2.651-13.01c-4.969-23.358-7.542-47.176-9.223-70.97l-.191-2.689c-.698-9.972-1.19-19.873-.996-29.874"/>
</svg>