<?xml version="1.0" encoding="UTF-8"?>
<svg id="Layer_1" data-name="Layer 1" xmlns="http://www.w3.org/2000/svg" viewBox="0 0 720 720">
  <defs>
    <style>
      .cls-1 {
        fill: #231f20;
      }
    </style>
  </defs>
  <g id="Main">
    <path class="cls-1" d="M193.37,541l171-171.11,171.15,171.06c12.13-11.07,22.45-22.65,31.16-33.9l-202.31-202.21-202.29,202.14c8.78,11.39,19.15,22.98,31.28,34.02Z"/>
    <path class="cls-1" d="M364.39,617.67c-139.74,0-253.58-110.81-258.48-249.36h-30.26c4.92,155.25,132.3,279.6,288.75,279.6s283.83-124.35,288.75-279.6h-30.26c-4.9,138.54-118.74,249.36-258.48,249.36Z"/>
    <path class="cls-1" d="M364.39,100.33c139.74,0,253.58,110.81,258.48,249.36h30.26c-4.92-155.25-132.3-279.6-288.75-279.6S80.56,194.44,75.64,349.69h30.26c4.9-138.54,118.74-249.36,258.48-249.36Z"/>
  </g>
</svg>
