<svg xmlns="http://www.w3.org/2000/svg" viewBox="310 260 410 410">
<rect x="310" y="260" width="410" height="410" fill="#111111"/>
<path d="M 628.68 573.20 C625.44,576.89 621.76,580.59 620.49,581.42 C618.28,582.86 618.00,582.72 613.94,578.21 C601.50,564.40 514.60,477.00 513.31,477.00 C511.59,477.00 496.43,492.02 444.18,545.48 L 408.04 582.45 L 403.44 577.98 C400.91,575.51 395.46,569.34 391.31,564.27 L 383.78 555.03 L 418.70 519.27 C448.48,488.77 482.57,453.44 506.76,428.00 L 512.94 421.50 L 531.22 440.50 C541.27,450.95 567.52,477.95 589.54,500.50 C638.46,550.58 642.00,554.33 642.00,555.98 C642.00,557.41 637.86,562.77 628.68,573.20 ZM 350.03 457.95 C349.10,459.45 337.05,460.23 334.10,458.98 C331.74,457.97 331.71,457.79 332.32,448.53 C333.76,426.66 341.98,398.82 352.83,379.05 C362.43,361.57 370.91,350.12 384.00,336.97 C410.62,310.23 441.80,293.71 480.18,286.01 C493.12,283.42 530.84,283.11 543.32,285.50 C563.21,289.30 579.14,294.55 595.03,302.52 C641.58,325.86 676.28,369.11 688.89,419.50 C693.42,437.64 695.50,456.95 693.08,458.45 C691.24,459.59 678.12,459.51 676.96,458.35 C676.32,457.72 675.40,453.44 674.90,448.85 C673.00,431.10 667.87,411.54 661.40,397.35 C640.90,352.36 602.50,319.85 555.50,307.68 C539.56,303.55 529.84,302.69 506.01,303.29 C485.99,303.78 483.70,304.04 473.00,306.93 C446.99,313.96 425.06,325.41 406.37,341.71 C395.64,351.07 381.73,367.04 375.85,376.77 C361.55,400.39 352.94,425.45 351.33,448.10 C350.99,452.91 350.41,457.34 350.03,457.95 ZM 533.77 644.98 C521.94,646.19 500.46,646.11 490.14,644.82 C479.20,643.45 457.92,637.82 446.00,633.15 C433.92,628.41 417.97,619.46 407.06,611.30 C394.77,602.10 371.67,578.75 364.23,568.00 C346.50,542.36 334.38,509.08 332.37,480.48 L 331.70 471.00 L 350.70 471.00 L 351.34 479.94 C352.09,490.56 354.97,504.10 359.11,516.47 C377.83,572.42 427.38,614.72 486.28,625.01 C497.45,626.96 501.37,627.18 517.28,626.72 C530.53,626.33 538.23,625.60 545.50,624.03 C574.41,617.80 598.16,605.72 621.00,585.62 C651.64,558.65 671.29,519.74 674.84,479.00 L 675.50 471.50 L 695.08 470.93 L 694.47 476.21 C689.82,516.88 679.69,543.67 657.80,573.20 C628.48,612.73 581.17,640.11 533.77,644.98 Z" fill="#ffffff"/>
</svg>
