<svg xmlns="http://www.w3.org/2000/svg" width="1024" height="1024" viewBox="0 0 1024 1024">
<g>
<path d="M 628.68 573.20 C625.44,576.89 621.76,580.59 620.49,581.42 C618.28,582.86 618.00,582.72 613.94,578.21 C601.50,564.40 514.60,477.00 513.31,477.00 C511.59,477.00 496.43,492.02 444.18,545.48 L 408.04 582.45 L 403.44 577.98 C400.91,575.51 395.46,569.34 391.31,564.27 L 383.78 555.03 L 418.70 519.27 C448.48,488.77 482.57,453.44 506.76,428.00 L 512.94 421.50 L 531.22 440.50 C541.27,450.95 567.52,477.95 589.54,500.50 C638.46,550.58 642.00,554.33 642.00,555.98 C642.00,557.41 637.86,562.77 628.68,573.20 ZM 350.03 457.95 C349.10,459.45 337.05,460.23 334.10,458.98 C331.74,457.97 331.71,457.79 332.32,448.53 C333.76,426.66 341.98,398.82 352.83,379.05 C362.43,361.57 370.91,350.12 384.00,336.97 C410.62,310.23 441.80,293.71 480.18,286.01 C493.12,283.42 530.84,283.11 543.32,285.50 C563.21,289.30 579.14,294.55 595.03,302.52 C641.58,325.86 676.28,369.11 688.89,419.50 C693.42,437.64 695.50,456.95 693.08,458.45 C691.24,459.59 678.12,459.51 676.96,458.35 C676.32,457.72 675.40,453.44 674.90,448.85 C673.00,431.10 667.87,411.54 661.40,397.35 C640.90,352.36 602.50,319.85 555.50,307.68 C539.56,303.55 529.84,302.69 506.01,303.29 C485.99,303.78 483.70,304.04 473.00,306.93 C446.99,313.96 425.06,325.41 406.37,341.71 C395.64,351.07 381.73,367.04 375.85,376.77 C361.55,400.39 352.94,425.45 351.33,448.10 C350.99,452.91 350.41,457.34 350.03,457.95 ZM 533.77 644.98 C521.94,646.19 500.46,646.11 490.14,644.82 C479.20,643.45 457.92,637.82 446.00,633.15 C433.92,628.41 417.97,619.46 407.06,611.30 C394.77,602.10 371.67,578.75 364.23,568.00 C346.50,542.36 334.38,509.08 332.37,480.48 L 331.70 471.00 L 350.70 471.00 L 351.34 479.94 C352.09,490.56 354.97,504.10 359.11,516.47 C377.83,572.42 427.38,614.72 486.28,625.01 C497.45,626.96 501.37,627.18 517.28,626.72 C530.53,626.33 538.23,625.60 545.50,624.03 C574.41,617.80 598.16,605.72 621.00,585.62 C651.64,558.65 671.29,519.74 674.84,479.00 L 675.50 471.50 L 695.08 470.93 L 694.47 476.21 C689.82,516.88 679.69,543.67 657.80,573.20 C628.48,612.73 581.17,640.11 533.77,644.98 ZM 565.50 736.81 C561.79,738.82 530.00,739.98 530.00,738.10 C530.00,737.50 530.87,737.00 531.93,737.00 C536.63,737.00 537.00,735.23 537.00,713.00 C537.00,690.77 536.63,689.00 531.93,689.00 C530.87,689.00 530.00,688.48 530.00,687.85 C530.00,686.10 559.55,687.37 564.23,689.32 C568.78,691.22 571.11,694.73 571.18,699.77 C571.25,704.96 569.72,707.58 565.29,709.86 L 561.64 711.73 L 565.17 712.89 C571.02,714.82 573.50,718.28 573.50,724.50 C573.50,730.36 571.37,733.64 565.50,736.81 ZM 327.31 738.36 C326.25,739.42 307.17,739.08 306.50,738.00 C306.16,737.45 306.78,737.00 307.87,737.00 C312.65,737.00 313.00,735.31 313.00,712.63 C313.00,690.71 312.70,689.00 308.86,689.00 C307.90,689.00 306.80,688.48 306.41,687.85 C305.88,686.99 309.50,686.84 320.60,687.24 C342.16,688.03 347.00,690.56 347.00,701.05 C347.00,706.51 344.13,710.40 338.53,712.54 L 334.09 714.24 L 342.17 724.21 C346.61,729.69 351.53,734.96 353.12,735.92 C356.85,738.19 355.88,739.00 349.45,739.00 L 344.24 739.00 L 334.96 727.00 C327.72,717.63 325.16,715.00 323.31,715.00 C320.94,715.00 320.93,715.07 321.21,724.75 L 321.50 734.50 L 324.72 736.11 C326.50,737.00 327.66,738.01 327.31,738.36 ZM 235.50 738.00 C235.16,738.56 230.51,739.00 225.00,739.00 C219.49,739.00 214.84,738.56 214.50,738.00 C214.16,737.45 214.78,737.00 215.87,737.00 C220.62,737.00 221.00,735.26 221.00,713.36 C221.00,692.15 220.48,689.00 216.96,689.00 C215.88,689.00 215.00,688.49 215.00,687.86 C215.00,687.04 218.84,686.86 228.78,687.22 C239.75,687.61 243.51,688.13 247.21,689.77 C254.51,693.00 256.96,700.06 253.39,707.58 C250.89,712.86 246.04,715.27 236.85,715.80 L 229.00 716.26 L 229.00 724.97 C229.00,732.15 229.32,733.98 230.83,735.35 C231.83,736.26 233.44,737.00 234.39,737.00 C235.34,737.00 235.84,737.45 235.50,738.00 ZM 471.43 738.11 C470.77,739.18 453.99,739.32 454.02,738.25 C454.03,737.84 455.50,736.83 457.27,736.00 L 460.50 734.50 L 460.77 713.60 C461.01,695.21 460.84,692.48 459.37,690.85 C458.44,689.83 456.86,689.00 455.85,689.00 C454.83,689.00 454.00,688.55 454.00,688.00 C454.00,687.44 456.83,687.00 460.48,687.00 L 466.97 687.00 L 481.23 704.95 C489.08,714.82 495.84,722.92 496.25,722.95 C496.66,722.98 496.99,716.59 496.99,708.75 C496.97,693.39 496.08,689.73 492.22,689.18 C491.00,689.00 490.00,688.44 490.00,687.93 C490.00,687.42 494.05,687.00 499.00,687.00 C503.95,687.00 508.00,687.22 508.00,687.49 C508.00,687.75 506.49,688.60 504.65,689.37 C500.22,691.22 500.00,692.61 500.00,718.12 C500.00,729.61 499.66,738.98 499.25,738.95 C498.84,738.92 491.08,729.58 482.00,718.20 L 465.50 697.50 L 465.23 714.77 C464.93,733.22 465.40,735.56 469.52,736.59 C470.88,736.94 471.74,737.62 471.43,738.11 ZM 747.31 738.36 C746.24,739.43 730.00,739.09 730.00,738.00 C730.00,737.45 730.67,737.00 731.50,737.00 C732.33,737.00 733.90,736.10 735.00,735.00 C736.87,733.13 737.00,731.67 737.00,712.65 C737.00,694.22 736.83,692.16 735.17,690.65 C734.17,689.74 732.59,689.00 731.67,689.00 C730.75,689.00 730.00,688.55 730.00,688.00 C730.00,687.44 732.83,687.00 736.48,687.00 L 742.96 687.00 L 757.05 704.75 C764.79,714.51 771.55,722.65 772.07,722.83 C773.13,723.21 773.19,696.88 772.13,693.09 C771.47,690.74 770.55,689.96 766.50,688.34 C764.10,687.39 772.38,686.70 779.78,687.24 L 784.50 687.59 L 781.18 688.92 C779.33,689.65 777.44,691.33 776.93,692.69 C776.42,694.03 776.00,705.00 776.00,717.07 C776.00,729.13 775.66,738.99 775.25,738.97 C774.84,738.96 767.32,729.96 758.55,718.97 C749.78,707.99 742.23,699.00 741.78,699.00 C741.32,699.00 741.08,706.99 741.23,716.75 L 741.50 734.50 L 744.72 736.11 C746.50,737.00 747.66,738.01 747.31,738.36 ZM 265.43 738.11 C264.80,739.13 251.67,739.34 250.67,738.34 C250.31,737.97 251.29,736.89 252.86,735.94 C255.21,734.51 257.49,730.04 265.65,710.92 C271.11,698.12 276.14,687.45 276.81,687.23 C277.51,687.00 279.02,689.08 280.37,692.16 C298.22,732.85 299.36,735.21 301.61,736.23 C302.89,736.82 303.70,737.68 303.41,738.15 C302.67,739.35 285.25,739.21 284.50,738.00 C284.16,737.45 284.75,737.00 285.82,737.00 C289.74,737.00 290.29,734.60 287.80,728.33 L 285.49 722.50 L 274.96 722.22 L 264.42 721.94 L 262.70 726.72 C260.28,733.48 260.47,735.83 263.49,736.59 C264.86,736.93 265.74,737.62 265.43,738.11 ZM 413.46 738.07 C412.71,739.28 399.29,739.28 398.54,738.07 C398.23,737.56 398.93,736.84 400.10,736.47 C402.47,735.72 406.49,727.61 417.07,702.25 C420.56,693.86 423.96,687.00 424.60,687.00 C425.25,687.00 429.76,696.10 434.64,707.23 C446.12,733.44 447.07,735.29 449.74,736.59 C450.98,737.19 451.69,737.98 451.33,738.34 C450.30,739.36 433.19,739.12 432.54,738.07 C432.23,737.56 432.99,737.00 434.24,736.82 C436.13,736.55 436.48,735.93 436.36,733.00 C436.28,731.08 435.49,727.81 434.60,725.75 L 432.97 722.00 L 412.14 722.00 L 409.99 727.75 C407.65,734.00 408.11,736.26 411.87,736.82 C413.06,737.00 413.77,737.56 413.46,738.07 ZM 182.73 737.75 C179.47,736.82 178.78,736.92 177.63,738.49 C176.38,740.20 176.25,740.15 175.64,737.68 C174.60,733.55 173.65,723.00 174.32,723.00 C174.65,723.00 176.10,725.02 177.55,727.50 C180.76,732.97 184.85,736.04 189.85,736.71 C197.26,737.70 202.55,729.64 198.93,722.87 C198.34,721.76 194.15,718.47 189.61,715.54 C185.08,712.62 180.16,708.79 178.68,707.04 C173.28,700.62 176.28,690.19 184.42,687.09 C187.91,685.76 188.97,685.79 194.89,687.34 C201.10,688.97 201.55,688.97 202.73,687.36 C203.42,686.42 204.22,685.88 204.51,686.18 C205.32,686.98 206.39,703.00 205.64,703.00 C205.28,703.00 204.26,701.20 203.38,699.00 C201.00,693.03 196.87,690.00 191.17,690.02 C185.71,690.03 184.42,690.68 183.19,694.02 C181.43,698.76 183.57,701.60 194.14,708.54 C199.89,712.33 204.90,716.42 206.03,718.29 C210.34,725.34 207.39,734.18 199.46,738.02 C194.81,740.27 191.33,740.22 182.73,737.75 ZM 388.36 738.31 C387.34,739.33 367.21,739.15 366.58,738.12 C366.28,737.64 367.38,736.97 369.03,736.64 C371.03,736.24 372.36,735.18 373.02,733.46 C373.56,732.03 374.00,721.90 374.00,710.93 L 374.00 691.00 L 368.72 691.00 C362.38,691.00 359.58,692.72 357.97,697.60 C356.28,702.72 355.17,700.56 355.75,693.25 L 356.24 687.00 L 400.00 687.00 L 400.00 693.50 C400.00,700.67 398.78,701.89 397.00,696.49 C395.56,692.13 393.51,691.00 387.05,691.00 L 381.96 691.00 L 382.50 735.50 L 385.77 736.56 C387.58,737.14 388.74,737.93 388.36,738.31 ZM 667.50 738.00 C667.15,738.57 662.18,739.00 656.00,739.00 C649.82,739.00 644.85,738.57 644.50,738.00 C644.15,737.44 644.97,737.00 646.37,737.00 C650.98,737.00 652.00,734.74 652.00,724.59 L 652.00 715.33 L 644.89 704.91 C637.00,693.36 633.28,689.00 631.31,689.00 C630.59,689.00 630.00,688.55 630.00,688.00 C630.00,687.40 634.19,687.00 640.56,687.00 C647.34,687.00 650.90,687.36 650.50,688.00 C650.16,688.55 649.22,689.00 648.41,689.00 C645.02,689.00 645.99,692.39 652.02,701.52 C655.45,706.74 658.37,711.00 658.50,711.00 C658.63,711.00 661.27,707.00 664.37,702.12 C670.33,692.72 671.37,689.00 668.06,689.00 C666.99,689.00 665.84,688.55 665.50,688.00 C665.10,687.36 668.06,687.02 673.69,687.06 C680.96,687.11 682.16,687.33 680.53,688.31 C676.86,690.53 672.74,695.47 666.36,705.30 L 660.00 715.09 L 660.00 724.39 C660.00,734.47 661.18,737.00 665.89,737.00 C667.12,737.00 667.84,737.45 667.50,738.00 ZM 614.36 738.31 C613.98,738.69 609.09,739.00 603.50,739.00 C592.57,739.00 590.01,738.24 595.23,736.56 L 598.50 735.50 L 598.77 713.25 L 599.04 691.00 L 593.95 691.00 C587.49,691.00 585.44,692.13 584.00,696.49 C582.19,701.98 580.87,700.68 581.20,693.75 L 581.50 687.50 L 624.72 686.96 L 625.36 691.62 C626.24,698.06 626.16,700.00 625.01,700.00 C624.47,700.00 623.33,698.33 622.47,696.29 C620.47,691.48 619.64,691.03 612.75,691.02 L 607.00 691.00 L 607.10 710.75 C607.15,721.61 607.51,731.62 607.89,733.00 C608.34,734.64 609.70,735.87 611.82,736.56 C613.59,737.14 614.74,737.93 614.36,738.31 ZM 819.63 738.52 C807.97,741.98 795.71,737.58 789.65,727.77 C786.14,722.07 784.97,711.76 787.01,704.46 C790.80,690.91 804.22,683.97 820.00,687.39 C825.78,688.64 826.70,688.62 828.26,687.24 C829.22,686.38 830.19,685.86 830.41,686.09 C831.11,686.80 831.46,702.87 830.80,703.54 C830.45,703.88 829.29,702.22 828.22,699.83 C824.44,691.43 817.94,688.18 808.84,690.13 C805.33,690.88 803.20,692.14 800.62,695.00 C796.52,699.54 795.01,704.25 795.01,712.50 C795.01,715.80 795.49,720.22 796.07,722.32 C797.34,726.89 802.86,733.28 807.02,735.01 C811.95,737.05 820.18,735.81 826.09,732.13 C828.93,730.37 831.54,729.21 831.88,729.56 C833.09,730.81 824.55,737.06 819.63,738.52 ZM 726.98 738.25 C727.01,739.40 705.21,739.15 704.50,738.00 C704.15,737.44 704.97,737.00 706.37,737.00 C711.69,737.00 712.00,735.67 712.00,713.00 C712.00,690.77 711.63,689.00 706.93,689.00 C705.87,689.00 705.00,688.55 705.00,688.00 C705.00,687.39 709.33,687.00 716.00,687.00 C727.16,687.00 729.63,687.81 723.75,689.54 L 720.50 690.50 L 720.50 734.50 L 723.73 736.00 C725.50,736.83 726.97,737.84 726.98,738.25 ZM 546.20 734.80 C548.82,737.42 559.47,735.30 562.75,731.50 C565.20,728.66 565.81,722.38 563.97,718.94 C562.29,715.81 557.56,714.00 551.05,714.00 L 545.00 714.00 L 545.00 723.80 C545.00,730.09 545.43,734.03 546.20,734.80 ZM 229.22 701.75 L 228.93 713.00 L 233.72 713.00 C243.42,712.99 249.05,705.69 245.86,697.28 C244.16,692.80 240.76,690.87 234.16,690.65 L 229.50 690.50 ZM 321.00 701.56 L 321.00 712.00 L 324.79 712.00 C326.87,712.00 330.58,710.99 333.04,709.75 C336.62,707.94 337.68,706.79 338.39,703.89 C339.47,699.54 338.62,695.62 336.06,693.06 C334.09,691.09 324.06,689.22 322.08,690.45 C321.42,690.86 321.00,695.19 321.00,701.56 ZM 545.21 700.25 L 544.93 710.00 L 550.51 710.00 C559.68,710.00 563.42,706.96 563.21,699.68 C563.03,693.49 556.78,689.41 548.68,690.19 L 545.50 690.50 ZM 266.79 718.46 C267.50,719.16 282.50,719.17 283.21,718.46 C283.79,717.88 275.83,698.06 275.00,698.04 C274.18,698.01 266.20,717.87 266.79,718.46 ZM 414.00 718.52 C414.00,718.78 417.83,719.00 422.50,719.00 C427.90,719.00 431.00,718.61 431.00,717.92 C431.00,716.67 424.01,699.88 423.00,698.71 C422.45,698.08 414.00,716.69 414.00,718.52 ZM 847.80 737.80 C847.14,738.46 845.88,739.00 845.00,739.00 C840.64,739.00 839.36,732.45 843.51,731.41 C847.82,730.33 850.81,734.79 847.80,737.80 Z" fill="rgb(1,1,1)"/>
<path d="M 0.00 512.00 L 0.00 0.00 L 512.00 0.00 L 1024.00 0.00 L 1024.00 512.00 L 1024.00 1024.00 L 512.00 1024.00 L 0.00 1024.00 L 0.00 512.00 ZM 182.73 737.75 C191.33,740.22 194.81,740.27 199.46,738.02 C207.39,734.18 210.34,725.34 206.03,718.29 C204.90,716.42 199.89,712.33 194.14,708.54 C183.57,701.60 181.43,698.76 183.19,694.02 C184.42,690.68 185.71,690.03 191.17,690.02 C196.87,690.00 201.00,693.03 203.38,699.00 C204.26,701.20 205.28,703.00 205.64,703.00 C206.39,703.00 205.32,686.98 204.51,686.18 C204.22,685.88 203.42,686.42 202.73,687.36 C201.55,688.97 201.10,688.97 194.89,687.34 C188.97,685.79 187.91,685.76 184.42,687.09 C176.28,690.19 173.28,700.62 178.68,707.04 C180.16,708.79 185.08,712.62 189.61,715.54 C194.15,718.47 198.34,721.76 198.93,722.87 C202.55,729.64 197.26,737.70 189.85,736.71 C184.85,736.04 180.76,732.97 177.55,727.50 C176.10,725.02 174.65,723.00 174.32,723.00 C173.65,723.00 174.60,733.55 175.64,737.68 C176.25,740.15 176.38,740.20 177.63,738.49 C178.78,736.92 179.47,736.82 182.73,737.75 ZM 819.63 738.52 C824.55,737.06 833.09,730.81 831.88,729.56 C831.54,729.21 828.93,730.37 826.09,732.13 C820.18,735.81 811.95,737.05 807.02,735.01 C802.86,733.28 797.34,726.89 796.07,722.32 C795.49,720.22 795.01,715.80 795.01,712.50 C795.01,704.25 796.52,699.54 800.62,695.00 C803.20,692.14 805.33,690.88 808.84,690.13 C817.94,688.18 824.44,691.43 828.22,699.83 C829.29,702.22 830.45,703.88 830.80,703.54 C831.46,702.87 831.11,686.80 830.41,686.09 C830.19,685.86 829.22,686.38 828.26,687.24 C826.70,688.62 825.78,688.64 820.00,687.39 C804.22,683.97 790.80,690.91 787.01,704.46 C784.97,711.76 786.14,722.07 789.65,727.77 C795.71,737.58 807.97,741.98 819.63,738.52 ZM 235.50 738.00 C235.84,737.45 235.34,737.00 234.39,737.00 C233.44,737.00 231.83,736.26 230.83,735.35 C229.32,733.98 229.00,732.15 229.00,724.97 L 229.00 716.26 L 236.85 715.80 C246.04,715.27 250.89,712.86 253.39,707.58 C256.96,700.06 254.51,693.00 247.21,689.77 C243.51,688.13 239.75,687.61 228.78,687.22 C218.84,686.86 215.00,687.04 215.00,687.86 C215.00,688.49 215.88,689.00 216.96,689.00 C220.48,689.00 221.00,692.15 221.00,713.36 C221.00,735.26 220.62,737.00 215.87,737.00 C214.78,737.00 214.16,737.45 214.50,738.00 C214.84,738.56 219.49,739.00 225.00,739.00 C230.51,739.00 235.16,738.56 235.50,738.00 ZM 265.43 738.11 C265.74,737.62 264.86,736.93 263.49,736.59 C260.47,735.83 260.28,733.48 262.70,726.72 L 264.42 721.94 L 274.96 722.22 L 285.49 722.50 L 287.80 728.33 C290.29,734.60 289.74,737.00 285.82,737.00 C284.75,737.00 284.16,737.45 284.50,738.00 C285.25,739.21 302.67,739.35 303.41,738.15 C303.70,737.68 302.89,736.82 301.61,736.23 C299.36,735.21 298.22,732.85 280.37,692.16 C279.02,689.08 277.51,687.00 276.81,687.23 C276.14,687.45 271.11,698.12 265.65,710.92 C257.49,730.04 255.21,734.51 252.86,735.94 C251.29,736.89 250.31,737.97 250.67,738.34 C251.67,739.34 264.80,739.13 265.43,738.11 ZM 327.31 738.36 C327.66,738.01 326.50,737.00 324.72,736.11 L 321.50 734.50 L 321.21 724.75 C320.93,715.07 320.94,715.00 323.31,715.00 C325.16,715.00 327.72,717.63 334.96,727.00 L 344.24 739.00 L 349.45 739.00 C355.88,739.00 356.85,738.19 353.12,735.92 C351.53,734.96 346.61,729.69 342.17,724.21 L 334.09 714.24 L 338.53 712.54 C344.13,710.40 347.00,706.51 347.00,701.05 C347.00,690.56 342.16,688.03 320.60,687.24 C309.50,686.84 305.88,686.99 306.41,687.85 C306.80,688.48 307.90,689.00 308.86,689.00 C312.70,689.00 313.00,690.71 313.00,712.63 C313.00,735.31 312.65,737.00 307.87,737.00 C306.78,737.00 306.16,737.45 306.50,738.00 C307.17,739.08 326.25,739.42 327.31,738.36 ZM 388.36 738.31 C388.74,737.93 387.58,737.14 385.77,736.56 L 382.50 735.50 L 382.23 713.25 L 381.96 691.00 L 387.05 691.00 C393.51,691.00 395.56,692.13 397.00,696.49 C398.78,701.89 400.00,700.67 400.00,693.50 L 400.00 687.00 L 378.12 687.00 L 356.24 687.00 L 355.75 693.25 C355.17,700.56 356.28,702.72 357.97,697.60 C359.58,692.72 362.38,691.00 368.72,691.00 L 374.00 691.00 L 374.00 710.93 C374.00,721.90 373.56,732.03 373.02,733.46 C372.36,735.18 371.03,736.24 369.03,736.64 C367.38,736.97 366.28,737.64 366.58,738.12 C367.21,739.15 387.34,739.33 388.36,738.31 ZM 413.46 738.07 C413.77,737.56 413.06,737.00 411.87,736.82 C408.11,736.26 407.65,734.00 409.99,727.75 L 412.14 722.00 L 422.56 722.00 L 432.97 722.00 L 434.60 725.75 C435.49,727.81 436.28,731.08 436.36,733.00 C436.48,735.93 436.13,736.55 434.24,736.82 C432.99,737.00 432.23,737.56 432.54,738.07 C433.19,739.12 450.30,739.36 451.33,738.34 C451.69,737.98 450.98,737.19 449.74,736.59 C447.07,735.29 446.12,733.44 434.64,707.23 C429.76,696.10 425.25,687.00 424.60,687.00 C423.96,687.00 420.56,693.86 417.07,702.25 C406.49,727.61 402.47,735.72 400.10,736.47 C398.93,736.84 398.23,737.56 398.54,738.07 C399.29,739.28 412.71,739.28 413.46,738.07 ZM 471.43 738.11 C471.74,737.62 470.88,736.94 469.52,736.59 C465.40,735.56 464.93,733.22 465.23,714.77 L 465.50 697.50 L 482.00 718.20 C491.08,729.58 498.84,738.92 499.25,738.95 C499.66,738.98 500.00,729.61 500.00,718.12 C500.00,692.61 500.22,691.22 504.65,689.37 C506.49,688.60 508.00,687.75 508.00,687.49 C508.00,687.22 503.95,687.00 499.00,687.00 C494.05,687.00 490.00,687.42 490.00,687.93 C490.00,688.44 491.00,689.00 492.22,689.18 C496.08,689.73 496.97,693.39 496.99,708.75 C496.99,716.59 496.66,722.98 496.25,722.95 C495.84,722.92 489.08,714.82 481.23,704.95 L 466.97 687.00 L 460.48 687.00 C456.83,687.00 454.00,687.44 454.00,688.00 C454.00,688.55 454.83,689.00 455.85,689.00 C456.86,689.00 458.44,689.83 459.37,690.85 C460.84,692.48 461.01,695.21 460.77,713.60 L 460.50 734.50 L 457.27 736.00 C455.50,736.83 454.03,737.84 454.02,738.25 C453.99,739.32 470.77,739.18 471.43,738.11 ZM 565.50 736.81 C571.37,733.64 573.50,730.36 573.50,724.50 C573.50,718.28 571.02,714.82 565.17,712.89 L 561.64 711.73 L 565.29 709.86 C569.72,707.58 571.25,704.96 571.18,699.77 C571.11,694.73 568.78,691.22 564.23,689.32 C559.55,687.37 530.00,686.10 530.00,687.85 C530.00,688.48 530.87,689.00 531.93,689.00 C536.63,689.00 537.00,690.77 537.00,713.00 C537.00,735.23 536.63,737.00 531.93,737.00 C530.87,737.00 530.00,737.50 530.00,738.10 C530.00,739.98 561.79,738.82 565.50,736.81 ZM 614.36 738.31 C614.74,737.93 613.59,737.14 611.82,736.56 C609.70,735.87 608.34,734.64 607.89,733.00 C607.51,731.62 607.15,721.61 607.10,710.75 L 607.00 691.00 L 612.75 691.02 C619.64,691.03 620.47,691.48 622.47,696.29 C623.33,698.33 624.47,700.00 625.01,700.00 C626.16,700.00 626.24,698.06 625.36,691.62 L 624.72 686.96 L 603.11 687.23 L 581.50 687.50 L 581.20 693.75 C580.87,700.68 582.19,701.98 584.00,696.49 C585.44,692.13 587.49,691.00 593.95,691.00 L 599.04 691.00 L 598.77 713.25 L 598.50 735.50 L 595.23 736.56 C590.01,738.24 592.57,739.00 603.50,739.00 C609.09,739.00 613.98,738.69 614.36,738.31 ZM 667.50 738.00 C667.84,737.45 667.12,737.00 665.89,737.00 C661.18,737.00 660.00,734.47 660.00,724.39 L 660.00 715.09 L 666.36 705.30 C672.74,695.47 676.86,690.53 680.53,688.31 C682.16,687.33 680.96,687.11 673.69,687.06 C668.06,687.02 665.10,687.36 665.50,688.00 C665.84,688.55 666.99,689.00 668.06,689.00 C671.37,689.00 670.33,692.72 664.37,702.12 C661.27,707.00 658.63,711.00 658.50,711.00 C658.37,711.00 655.45,706.74 652.02,701.52 C645.99,692.39 645.02,689.00 648.41,689.00 C649.22,689.00 650.16,688.55 650.50,688.00 C650.90,687.36 647.34,687.00 640.56,687.00 C634.19,687.00 630.00,687.40 630.00,688.00 C630.00,688.55 630.59,689.00 631.31,689.00 C633.28,689.00 637.00,693.36 644.89,704.91 L 652.00 715.33 L 652.00 724.59 C652.00,734.74 650.98,737.00 646.37,737.00 C644.97,737.00 644.15,737.44 644.50,738.00 C644.85,738.57 649.82,739.00 656.00,739.00 C662.18,739.00 667.15,738.57 667.50,738.00 ZM 726.98 738.25 C726.97,737.84 725.50,736.83 723.73,736.00 L 720.50 734.50 L 720.50 712.50 L 720.50 690.50 L 723.75 689.54 C729.63,687.81 727.16,687.00 716.00,687.00 C709.33,687.00 705.00,687.39 705.00,688.00 C705.00,688.55 705.87,689.00 706.93,689.00 C711.63,689.00 712.00,690.77 712.00,713.00 C712.00,735.67 711.69,737.00 706.37,737.00 C704.97,737.00 704.15,737.44 704.50,738.00 C705.21,739.15 727.01,739.40 726.98,738.25 ZM 747.31 738.36 C747.66,738.01 746.50,737.00 744.72,736.11 L 741.50 734.50 L 741.23 716.75 C741.08,706.99 741.32,699.00 741.78,699.00 C742.23,699.00 749.78,707.99 758.55,718.97 C767.32,729.96 774.84,738.96 775.25,738.97 C775.66,738.99 776.00,729.13 776.00,717.07 C776.00,705.00 776.42,694.03 776.93,692.69 C777.44,691.33 779.33,689.65 781.18,688.92 L 784.50 687.59 L 779.78 687.24 C772.38,686.70 764.10,687.39 766.50,688.34 C770.55,689.96 771.47,690.74 772.13,693.09 C773.19,696.88 773.13,723.21 772.07,722.83 C771.55,722.65 764.79,714.51 757.05,704.75 L 742.96 687.00 L 736.48 687.00 C732.83,687.00 730.00,687.44 730.00,688.00 C730.00,688.55 730.75,689.00 731.67,689.00 C732.59,689.00 734.17,689.74 735.17,690.65 C736.83,692.16 737.00,694.22 737.00,712.65 C737.00,731.67 736.87,733.13 735.00,735.00 C733.90,736.10 732.33,737.00 731.50,737.00 C730.67,737.00 730.00,737.45 730.00,738.00 C730.00,739.09 746.24,739.43 747.31,738.36 ZM 847.80 737.80 C850.81,734.79 847.82,730.33 843.51,731.41 C839.36,732.45 840.64,739.00 845.00,739.00 C845.88,739.00 847.14,738.46 847.80,737.80 ZM 533.77 644.98 C581.17,640.11 628.48,612.73 657.80,573.20 C679.69,543.67 689.82,516.88 694.47,476.21 L 695.08 470.93 L 685.29 471.21 L 675.50 471.50 L 674.84 479.00 C671.29,519.74 651.64,558.65 621.00,585.62 C598.16,605.72 574.41,617.80 545.50,624.03 C538.23,625.60 530.53,626.33 517.28,626.72 C501.37,627.18 497.45,626.96 486.28,625.01 C427.38,614.72 377.83,572.42 359.11,516.47 C354.97,504.10 352.09,490.56 351.34,479.94 L 350.70 471.00 L 341.20 471.00 L 331.70 471.00 L 332.37 480.48 C334.38,509.08 346.50,542.36 364.23,568.00 C371.67,578.75 394.77,602.10 407.06,611.30 C417.97,619.46 433.92,628.41 446.00,633.15 C457.92,637.82 479.20,643.45 490.14,644.82 C500.46,646.11 521.94,646.19 533.77,644.98 ZM 628.68 573.20 C637.86,562.77 642.00,557.41 642.00,555.98 C642.00,554.33 638.46,550.58 589.54,500.50 C567.52,477.95 541.27,450.95 531.22,440.50 L 512.94 421.50 L 506.76 428.00 C482.57,453.44 448.48,488.77 418.70,519.27 L 383.78 555.03 L 391.31 564.27 C395.46,569.34 400.91,575.51 403.44,577.98 L 408.04 582.45 L 444.18 545.48 C496.43,492.02 511.59,477.00 513.31,477.00 C514.60,477.00 601.50,564.40 613.94,578.21 C618.00,582.72 618.28,582.86 620.49,581.42 C621.76,580.59 625.44,576.89 628.68,573.20 ZM 350.03 457.95 C350.41,457.34 350.99,452.91 351.33,448.10 C352.94,425.45 361.55,400.39 375.85,376.77 C381.73,367.04 395.64,351.07 406.37,341.71 C425.06,325.41 446.99,313.96 473.00,306.93 C483.70,304.04 485.99,303.78 506.01,303.29 C529.84,302.69 539.56,303.55 555.50,307.68 C602.50,319.85 640.90,352.36 661.40,397.35 C667.87,411.54 673.00,431.10 674.90,448.85 C675.40,453.44 676.32,457.72 676.96,458.35 C678.12,459.51 691.24,459.59 693.08,458.45 C695.50,456.95 693.42,437.64 688.89,419.50 C676.28,369.11 641.58,325.86 595.03,302.52 C579.14,294.55 563.21,289.30 543.32,285.50 C530.84,283.11 493.12,283.42 480.18,286.01 C441.80,293.71 410.62,310.23 384.00,336.97 C370.91,350.12 362.43,361.57 352.83,379.05 C341.98,398.82 333.76,426.66 332.32,448.53 C331.71,457.79 331.74,457.97 334.10,458.98 C337.05,460.23 349.10,459.45 350.03,457.95 ZM 229.22 701.75 L 229.50 690.50 L 234.16 690.65 C240.76,690.87 244.16,692.80 245.86,697.28 C249.05,705.69 243.42,712.99 233.72,713.00 L 228.93 713.00 L 229.22 701.75 ZM 266.79 718.46 C266.20,717.87 274.18,698.01 275.00,698.04 C275.83,698.06 283.79,717.88 283.21,718.46 C282.50,719.17 267.50,719.16 266.79,718.46 ZM 321.00 701.56 C321.00,695.19 321.42,690.86 322.08,690.45 C324.06,689.22 334.09,691.09 336.06,693.06 C338.62,695.62 339.47,699.54 338.39,703.89 C337.68,706.79 336.62,707.94 333.04,709.75 C330.58,710.99 326.87,712.00 324.79,712.00 L 321.00 712.00 L 321.00 701.56 ZM 414.00 718.52 C414.00,716.69 422.45,698.08 423.00,698.71 C424.01,699.88 431.00,716.67 431.00,717.92 C431.00,718.61 427.90,719.00 422.50,719.00 C417.83,719.00 414.00,718.78 414.00,718.52 ZM 546.20 734.80 C545.43,734.03 545.00,730.09 545.00,723.80 L 545.00 714.00 L 551.05 714.00 C557.56,714.00 562.29,715.81 563.97,718.94 C565.81,722.38 565.20,728.66 562.75,731.50 C559.47,735.30 548.82,737.42 546.20,734.80 ZM 545.21 700.25 L 545.50 690.50 L 548.68 690.19 C556.78,689.41 563.03,693.49 563.21,699.68 C563.42,706.96 559.68,710.00 550.51,710.00 L 544.93 710.00 L 545.21 700.25 Z" fill="rgb(254,254,254)"/>
</g>
</svg>
